<svg xmlns="http://www.w3.org/2000/svg" version="1.1" xmlns:xlink="http://www.w3.org/1999/xlink" xmlns:svgjs="http://svgjs.dev/svgjs" width="1500" height="935" viewBox="0 0 1500 935"><g transform="matrix(1,0,0,1,-0.9090909090909918,151.04258174203574)"><svg viewBox="0 0 396 247" data-background-color="#ffffff" preserveAspectRatio="xMidYMid meet" height="935" width="1500" xmlns="http://www.w3.org/2000/svg" xmlns:xlink="http://www.w3.org/1999/xlink"><g id="tight-bounds" transform="matrix(1,0,0,1,0.2400000000000091,-0.09999999999999432)"><svg viewBox="0 0 395.52 247.2" height="247.2" width="395.52"><g><svg></svg></g><g><svg viewBox="0 0 395.52 247.2" height="247.2" width="395.52"><g transform="matrix(1,0,0,1,75.54432,71.98133011350217)"><svg viewBox="0 0 244.43135999999998 103.23733977299567" height="103.23733977299567" width="244.43135999999998"><g><svg viewBox="0 0 244.43135999999998 103.23733977299567" height="103.23733977299567" width="244.43135999999998"><g><svg viewBox="0 0 244.43135999999998 103.23733977299567" height="103.23733977299567" width="244.43135999999998"><g id="textblocktransform"><svg viewBox="0 0 244.43135999999998 103.23733977299567" height="103.23733977299567" width="244.43135999999998" id="textblock"><g><svg viewBox="0 0 244.43135999999998 103.23733977299567" height="103.23733977299567" width="244.43135999999998"><g transform="matrix(1,0,0,1,0,0)"><svg width="244.43135999999998" viewBox="-5.414199999999998 -35.68358 124.51244999999999 52.58874" height="103.23733977299567" data-palette-color="#ed0505"><path d="M11.16-29.011l1.747 5.129-9.744 4.492 3.613 8.553 8.736-4.027 1.736 5.08-8.382 3.864 0.649 1.528 6.043 11.651-6.412 2.955-4.574-11.38-9.986-20.205zM22.315-6.774c-0.974-4.195-0.669-8.01 0.915-11.444 1.583-3.441 3.887-5.512 6.914-6.215 3.026-0.703 5.612-0.266 7.757 1.309 2.137 1.571 3.582 3.976 4.335 7.216v0c1.003 4.318 0.749 8.162-0.761 11.532-1.51 3.369-3.918 5.437-7.224 6.204v0c-2.714 0.63-5.202 0.13-7.463-1.5-2.261-1.631-3.752-3.998-4.473-7.102zM37.335-12.08v0c-1.102-4.747-3.274-6.744-6.515-5.991v0c-3.37 0.783-4.538 3.401-3.503 7.856v0c0.54 2.325 1.435 4.03 2.687 5.115 1.253 1.092 2.655 1.457 4.207 1.096 1.559-0.362 2.598-1.233 3.119-2.613 0.528-1.382 0.529-3.203 0.005-5.463zM45.511-11.621c-0.091-4.306 0.991-7.976 3.247-11.011 2.256-3.042 4.937-4.596 8.043-4.662 3.106-0.066 5.547 0.892 7.322 2.875 1.769 1.976 2.689 4.627 2.76 7.953v0c0.094 4.432-0.944 8.142-3.114 11.129-2.17 2.987-4.952 4.516-8.345 4.588v0c-2.786 0.059-5.118-0.941-6.995-3.002-1.878-2.061-2.85-4.684-2.918-7.87zM61.3-13.727v0c-0.104-4.872-1.818-7.273-5.144-7.202v0c-3.459 0.074-5.14 2.396-5.043 6.968v0c0.051 2.386 0.577 4.239 1.578 5.558 1.002 1.326 2.299 1.972 3.892 1.938 1.6-0.034 2.796-0.673 3.59-1.917 0.8-1.244 1.176-3.026 1.127-5.345zM82.713-3.331v0c-3.19 2.745-5.725 3.938-7.604 3.58v0c-2.345-0.447-4.088-1.769-5.23-3.969-1.134-2.204-1.416-4.806-0.844-7.806v0c0.786-4.126 2.596-7.392 5.429-9.797 2.839-2.398 5.925-3.279 9.258-2.644v0l2.695 0.92 0.18-0.943 1.617-11.694 7.014 0.054-5.485 25.321-0.831 4.361c-0.377 1.978-0.316 4.351 0.181 7.12v0l-5.777 1.2c-0.579-2.16-0.781-4.061-0.603-5.703zM75.075-13.042c-0.402 2.109-0.33 3.833 0.216 5.172 0.547 1.333 1.557 2.139 3.031 2.419 1.467 0.279 3.106-0.023 4.916-0.906v0l2.038-10.697c-1.902-0.776-3.334-1.256-4.297-1.44v0c-1.48-0.282-2.734 0.029-3.76 0.933-1.026 0.897-1.74 2.403-2.144 4.519zM92.705 16.905l-5.422-3.834 9.396-8.623 0.629-10.823 0.204-13.264 6.649 1.51-1.31 11.138-0.503 5.33 0.606 0.263 2.574-2.895 8.185-9.748 5.385 3.164-17.51 17.955z" opacity="1" transform="matrix(1,0,0,1,0,0)" fill="#ed0505" class="wordmark-text-0" data-fill-palette-color="primary" id="text-0"></path></svg></g></svg></g></svg></g></svg></g><g></g></svg></g></svg></g><g><path d="M92.073 62.225A122.216 122.216 0 0 1 303.447 62.225L299.72 62.225A118.489 118.489 0 0 0 95.8 62.225L92.073 62.225M92.073 184.975A122.216 122.216 0 0 0 303.447 184.975L299.72 184.975A118.489 118.489 0 0 1 95.8 184.975L92.073 184.975" fill="#ec4104" stroke="transparent" data-fill-palette-color="tertiary"></path></g></svg></g><defs></defs></svg><rect width="395.52" height="247.2" fill="none" stroke="none" visibility="hidden"></rect></g></svg></g></svg>